<?xml version="1.0" encoding="UTF-8" standalone="no"?>
<!-- Generator: Adobe Illustrator 19.0.0, SVG Export Plug-In . SVG Version: 6.00 Build 0)  -->

<svg
   version="1.1"
   id="Layer_1"
   x="0px"
   y="0px"
   viewBox="0 0 512 512"
   style="enable-background:new 0 0 512 512;"
   xml:space="preserve"
   sodipodi:docname="ticket.svg"
   inkscape:version="1.2 (1:1.2.1+202207142221+cd75a1ee6d)"
   xmlns:inkscape="http://www.inkscape.org/namespaces/inkscape"
   xmlns:sodipodi="http://sodipodi.sourceforge.net/DTD/sodipodi-0.dtd"
   xmlns="http://www.w3.org/2000/svg"
   xmlns:svg="http://www.w3.org/2000/svg"><defs
   id="defs65"><rect
     x="95.566584"
     y="302.9331"
     width="308.05504"
     height="56.61331"
     id="rect976" /><rect
     x="114.91026"
     y="263.29559"
     width="282.23901"
     height="77.250588"
     id="rect3532" /></defs><sodipodi:namedview
   id="namedview63"
   pagecolor="#ffffff"
   bordercolor="#666666"
   borderopacity="1.0"
   inkscape:showpageshadow="2"
   inkscape:pageopacity="0.0"
   inkscape:pagecheckerboard="0"
   inkscape:deskcolor="#d1d1d1"
   showgrid="false"
   inkscape:zoom="1.6601562"
   inkscape:cx="220.76236"
   inkscape:cy="256.30118"
   inkscape:window-width="1848"
   inkscape:window-height="1016"
   inkscape:window-x="72"
   inkscape:window-y="27"
   inkscape:window-maximized="1"
   inkscape:current-layer="Layer_1" />
<path
   style="fill:#0E4151;"
   d="M504.017,146.545c-22.597,0-40.981-18.384-40.981-40.981c0-4.409-3.574-7.983-7.983-7.983H56.948  c-4.409,0-7.983,3.574-7.983,7.983c0,22.597-18.384,40.981-40.981,40.981c-4.409,0-7.983,3.574-7.983,7.983v202.943  c0,4.409,3.574,7.983,7.983,7.983c22.597,0,40.981,18.384,40.981,40.981c0,4.409,3.574,7.983,7.983,7.983h398.104  c4.409,0,7.983-3.574,7.983-7.983c0-22.597,18.384-40.981,40.981-40.981c4.409,0,7.983-3.574,7.983-7.983V154.529  C512,150.12,508.426,146.545,504.017,146.545z"
   id="path2" />
<path
   style="fill:#144F66;"
   d="M256,97.581H56.948c-4.409,0-7.983,3.574-7.983,7.983c0,22.597-18.384,40.981-40.981,40.981  c-4.409,0-7.983,3.574-7.983,7.983v202.943c0,4.409,3.574,7.983,7.983,7.983c22.597,0,40.981,18.384,40.981,40.981  c0,4.409,3.574,7.983,7.983,7.983H256V97.581z"
   id="path4" />
<g
   id="g10"
   transform="matrix(0.75671616,0,0,0.67454943,62.700092,15.84884)">
	<path
   style="fill:#ffffff"
   d="m 128.566,214.613 v 82.776 c 0,5.879 4.766,10.645 10.644,10.645 5.878,0 10.645,-4.766 10.645,-10.645 v -82.776 c 0,-5.879 -4.766,-10.644 -10.645,-10.644 -5.878,-0.001 -10.644,4.765 -10.644,10.644 z"
   id="path6" />
	<path
   style="fill:#ffffff"
   d="m 90.293,225.257 h 13.078 c 5.879,0 10.644,-4.766 10.644,-10.644 0,-5.878 -4.766,-10.644 -10.644,-10.644 H 55.926 c -5.879,0 -10.644,4.766 -10.644,10.644 0,5.878 4.766,10.644 10.644,10.644 h 13.078 v 72.131 c 0,5.879 4.766,10.645 10.644,10.645 5.879,0 10.644,-4.766 10.644,-10.645 0.001,0 0.001,-72.131 0.001,-72.131 z"
   id="path8" />
</g>
<g
   id="g16"
   transform="matrix(0.75671616,0,0,0.67454943,62.700092,15.84884)">
	<path
   style="fill:#dee1e7"
   d="m 456.074,203.968 h -47.445 c -5.879,0 -10.644,4.766 -10.644,10.644 0,5.878 4.766,10.644 10.644,10.644 h 13.078 v 72.131 c 0,5.879 4.766,10.645 10.645,10.645 5.879,0 10.644,-4.766 10.644,-10.645 v -72.131 h 13.078 c 5.879,0 10.644,-4.766 10.644,-10.644 0,-5.878 -4.765,-10.644 -10.644,-10.644 z"
   id="path12" />
	<path
   style="fill:#dee1e7"
   d="m 372.789,225.257 c 5.879,0 10.645,-4.766 10.645,-10.644 0,-5.878 -4.766,-10.644 -10.645,-10.644 h -34.195 c -9.279,0 -16.828,7.549 -16.828,16.828 v 70.409 c 0,9.279 7.549,16.828 16.828,16.828 h 34.195 c 5.879,0 10.645,-4.766 10.645,-10.645 0,-5.879 -4.766,-10.644 -10.645,-10.644 h -29.733 v -20.099 h 17.62 c 5.879,0 10.644,-4.766 10.644,-10.644 0,-5.879 -4.766,-10.645 -10.644,-10.645 h -17.62 v -20.099 h 29.733 z"
   id="path14" />
</g>
<path
   style="fill:#ffffff;stroke-width:0.714451"
   d="m 211.86777,167.79577 c 3.98259,0 7.22285,2.88783 7.22285,6.43862 0,3.96568 3.60651,7.1799 8.05449,7.1799 4.44798,0 8.05449,-3.2149 8.05449,-7.1799 0,-11.46802 -10.46766,-20.79904 -23.33259,-20.79904 -12.86493,0 -23.33258,9.33102 -23.33258,20.79904 v 28.59887 c 0,11.46802 10.46765,20.79904 23.33258,20.79904 12.86493,0 23.33259,-9.33102 23.33259,-20.79904 0,-3.96568 -3.60651,-7.1799 -8.05449,-7.1799 -4.44798,0 -8.05449,3.21492 -8.05449,7.1799 0,3.55015 -3.2395,6.43862 -7.22285,6.43862 -3.98336,0 -7.22286,-2.88781 -7.22286,-6.43862 v -28.59887 c 7.6e-4,-3.55011 3.24102,-6.43862 7.22286,-6.43862 z"
   id="path18" />
<path
   style="fill:#dee1e7;stroke-width:0.714451"
   d="m 293.74824,162.65846 v -2.04253 c 0,-3.96567 -3.60651,-7.17988 -8.05448,-7.17988 -4.44874,0 -8.05525,3.21491 -8.05525,7.17988 v 2.04253 c 0,7.57245 -5.94401,13.92538 -13.88953,15.55985 v -17.60238 c 0,-3.96567 -3.60651,-7.17988 -8.05449,-7.17988 -4.44873,0 -8.05448,3.21491 -8.05448,7.17988 v 55.83649 c 0,3.96567 3.6065,7.18058 8.05448,7.18058 4.44874,0 8.05449,-3.21491 8.05449,-7.18058 v -17.60239 c 7.94628,1.63378 13.88953,7.98741 13.88953,15.55986 v 2.04253 c 0,3.96567 3.60651,7.18058 8.05525,7.18058 4.44872,0 8.05448,-3.21491 8.05448,-7.18058 v -2.04253 c 0,-10.93714 -6.52819,-20.53871 -16.29285,-25.87572 9.7639,-5.3377 16.29285,-14.93857 16.29285,-25.87571 z"
   id="path20" />
<path
   style="fill:#ffffff;stroke-width:0.714451"
   d="m 256.41641,153.46437 c -0.23837,-0.0194 -0.47901,-0.0294 -0.72267,-0.0294 -4.44873,0 -8.05524,3.21491 -8.05524,7.1799 v 55.83651 c 0,3.96566 3.60651,7.18057 8.05524,7.18057 0.24517,0 0.48657,-0.0103 0.72569,-0.0294 z"
   id="path22" />
<path
   style="fill:#39b7b6"
   d="M 99.852,147.651 H 412.15 c 5.879,0 10.645,-4.766 10.645,-10.644 0,-5.878 -4.766,-10.644 -10.645,-10.644 H 99.852 c -5.879,0 -10.644,4.766 -10.644,10.644 0,5.878 4.765,10.644 10.644,10.644 z"
   id="path24" />
<path
   style="fill:#66cbc4"
   d="M 99.852,147.651 H 256 V 126.362 H 99.852 c -5.879,0 -10.644,4.766 -10.644,10.644 0,5.878 4.765,10.645 10.644,10.645 z"
   id="path26" />
<path
   style="fill:#39b7b6"
   d="M 99.852,385.639 H 412.15 c 5.879,0 10.645,-4.766 10.645,-10.645 0,-5.879 -4.766,-10.644 -10.645,-10.644 H 99.852 c -5.879,0 -10.644,4.766 -10.644,10.644 0,5.878 4.765,10.645 10.644,10.645 z"
   id="path28" />
<path
   style="fill:#66cbc4"
   d="M 99.852,385.639 H 256 V 364.35 H 99.852 c -5.879,0 -10.644,4.766 -10.644,10.644 0,5.878 4.765,10.645 10.644,10.645 z"
   id="path30" />
<g
   id="g32">
</g>
<g
   id="g34">
</g>
<g
   id="g36">
</g>
<g
   id="g38">
</g>
<g
   id="g40">
</g>
<g
   id="g42">
</g>
<g
   id="g44">
</g>
<g
   id="g46">
</g>
<g
   id="g48">
</g>
<g
   id="g50">
</g>
<g
   id="g52">
</g>
<g
   id="g54">
</g>
<g
   id="g56">
</g>
<g
   id="g58">
</g>
<g
   id="g60">
</g>
<text
   xml:space="preserve"
   id="text3530"
   style="font-style:normal;font-weight:normal;font-size:40px;line-height:1.25;font-family:sans-serif;letter-spacing:0px;word-spacing:0px;white-space:pre;shape-inside:url(#rect3532);display:inline;fill:#f6dd2b;fill-opacity:1;stroke:none"
   inkscape:transform-center-x="185.77947"
   inkscape:transform-center-y="-33.784059"
   transform="matrix(1.9746298,0,0,1.9203751,-32.748731,-279.02702)"><tspan
     x="114.91016"
     y="299.94774"
     id="tspan1031"><tspan
       style="font-family:Aachen;-inkscape-font-specification:Aachen"
       id="tspan1029">150</tspan></tspan></text><text
   xml:space="preserve"
   style="font-style:normal;font-weight:normal;font-size:40px;line-height:1.25;font-family:sans-serif;letter-spacing:0px;word-spacing:0px;fill:#000000;fill-opacity:1;stroke:none"
   x="196.4183"
   y="295.12729"
   id="text6502"><tspan
     sodipodi:role="line"
     id="tspan6500" /></text><path
   id="path4158"
   sodipodi:nodetypes="cccccccccccccccccccc"
   style="fill:#f6dd2b;fill-opacity:1;stroke:#000000;stroke-width:0.0262799"
   d="m 169.00859,297.09128 -24.02347,-30.0582 0.13875,-5.957 c 11.27483,0.77711 20.04031,-0.41641 22.07963,-11.0812 l -24.02373,-0.13791 3.88822,-6.51132 19.16346,0.27584 c -2.91988,-6.06841 -10.95017,-6.81634 -23.46836,-6.37077 l 4.3049,-6.37341 40.68851,-0.0609 -4.02721,6.29411 h -11.24803 c 2.05584,2.17016 3.56043,4.66719 3.61055,6.78743 l 11.66469,-0.13852 -4.02721,6.23337 -7.77646,0.13853 c -1.214,9.29833 -9.75692,14.80366 -20.55219,16.06851 l 24.18447,30.88305 -10.57566,0.006 v 1.1e-4 z" /><text
   xml:space="preserve"
   id="text974"
   style="font-style:normal;font-weight:normal;font-size:48px;line-height:1.25;font-family:sans-serif;letter-spacing:0px;word-spacing:0px;white-space:pre;shape-inside:url(#rect976);display:inline;fill:#ffffff;fill-opacity:1;stroke:none"
   transform="matrix(1.1314863,0,0,1.1626584,4.2542455,-44.065551)"><tspan
     x="95.566406"
     y="346.91697"
     id="tspan1037"><tspan
       style="font-family:Aachen;-inkscape-font-specification:Aachen"
       id="tspan1033">PER </tspan><tspan
       style="font-family:Aachen;-inkscape-font-specification:Aachen;fill-opacity:0.830299"
       id="tspan1035">HEAD</tspan></tspan></text></svg>
