<?xml version="1.0" encoding="iso-8859-1"?>
<!-- Generator: Adobe Illustrator 19.0.0, SVG Export Plug-In . SVG Version: 6.00 Build 0)  -->
<svg version="1.1" id="Layer_1" xmlns="http://www.w3.org/2000/svg" xmlns:xlink="http://www.w3.org/1999/xlink" x="0px" y="0px"
	 viewBox="0 0 512 512" style="enable-background:new 0 0 512 512;" xml:space="preserve">
<path style="fill:#0E4151;" d="M504.017,146.545c-22.597,0-40.981-18.384-40.981-40.981c0-4.409-3.574-7.983-7.983-7.983H56.948
	c-4.409,0-7.983,3.574-7.983,7.983c0,22.597-18.384,40.981-40.981,40.981c-4.409,0-7.983,3.574-7.983,7.983v202.943
	c0,4.409,3.574,7.983,7.983,7.983c22.597,0,40.981,18.384,40.981,40.981c0,4.409,3.574,7.983,7.983,7.983h398.104
	c4.409,0,7.983-3.574,7.983-7.983c0-22.597,18.384-40.981,40.981-40.981c4.409,0,7.983-3.574,7.983-7.983V154.529
	C512,150.12,508.426,146.545,504.017,146.545z"/>
<path style="fill:#144F66;" d="M256,97.581H56.948c-4.409,0-7.983,3.574-7.983,7.983c0,22.597-18.384,40.981-40.981,40.981
	c-4.409,0-7.983,3.574-7.983,7.983v202.943c0,4.409,3.574,7.983,7.983,7.983c22.597,0,40.981,18.384,40.981,40.981
	c0,4.409,3.574,7.983,7.983,7.983H256V97.581z"/>
<g>
	<path style="fill:#FFFFFF;" d="M128.566,214.613v82.776c0,5.879,4.766,10.645,10.644,10.645s10.645-4.766,10.645-10.645v-82.776
		c0-5.879-4.766-10.644-10.645-10.644C133.332,203.968,128.566,208.734,128.566,214.613z"/>
	<path style="fill:#FFFFFF;" d="M90.293,225.257h13.078c5.879,0,10.644-4.766,10.644-10.644s-4.766-10.644-10.644-10.644H55.926
		c-5.879,0-10.644,4.766-10.644,10.644s4.766,10.644,10.644,10.644h13.078v72.131c0,5.879,4.766,10.645,10.644,10.645
		c5.879,0,10.644-4.766,10.644-10.645C90.293,297.388,90.293,225.257,90.293,225.257z"/>
</g>
<g>
	<path style="fill:#DEE1E7;" d="M456.074,203.968h-47.445c-5.879,0-10.644,4.766-10.644,10.644s4.766,10.644,10.644,10.644h13.078
		v72.131c0,5.879,4.766,10.645,10.645,10.645c5.879,0,10.644-4.766,10.644-10.645v-72.131h13.078
		c5.879,0,10.644-4.766,10.644-10.644S461.953,203.968,456.074,203.968z"/>
	<path style="fill:#DEE1E7;" d="M372.789,225.257c5.879,0,10.645-4.766,10.645-10.644s-4.766-10.644-10.645-10.644h-34.195
		c-9.279,0-16.828,7.549-16.828,16.828v70.409c0,9.279,7.549,16.828,16.828,16.828h34.195c5.879,0,10.645-4.766,10.645-10.645
		s-4.766-10.644-10.645-10.644h-29.733v-20.099h17.62c5.879,0,10.644-4.766,10.644-10.644c0-5.879-4.766-10.645-10.644-10.645
		h-17.62v-20.099H372.789z"/>
</g>
<path style="fill:#FFFFFF;" d="M197.125,225.257c5.263,0,9.545,4.281,9.545,9.545c0,5.879,4.766,10.644,10.644,10.644
	s10.644-4.766,10.644-10.644c0-17.001-13.833-30.834-30.834-30.834s-30.834,13.833-30.834,30.834v42.397
	c0,17.001,13.833,30.834,30.834,30.834s30.834-13.833,30.834-30.834c0-5.879-4.766-10.644-10.644-10.644
	s-10.644,4.766-10.644,10.644c0,5.263-4.281,9.545-9.545,9.545c-5.264,0-9.545-4.281-9.545-9.545v-42.397
	C187.581,229.539,191.863,225.257,197.125,225.257z"/>
<path style="fill:#DEE1E7;" d="M305.33,217.641v-3.028c0-5.879-4.766-10.644-10.644-10.644c-5.879,0-10.645,4.766-10.645,10.644
	v3.028c0,11.226-7.855,20.644-18.355,23.067v-26.095c0-5.879-4.766-10.644-10.644-10.644c-5.879,0-10.644,4.766-10.644,10.644
	v82.776c0,5.879,4.766,10.645,10.644,10.645c5.879,0,10.644-4.766,10.644-10.645v-26.095c10.501,2.422,18.355,11.841,18.355,23.067
	v3.028c0,5.879,4.766,10.645,10.645,10.645c5.879,0,10.644-4.766,10.644-10.645v-3.028c0-16.214-8.627-30.448-21.531-38.36
	C296.702,248.088,305.33,233.855,305.33,217.641z"/>
<path style="fill:#FFFFFF;" d="M255.996,204.011c-0.315-0.028-0.633-0.043-0.955-0.043c-5.879,0-10.645,4.766-10.645,10.644v82.776
	c0,5.879,4.766,10.645,10.645,10.645c0.324,0,0.643-0.015,0.959-0.043L255.996,204.011z"/>
<path style="fill:#39B7B6;" d="M99.852,167.651h312.298c5.879,0,10.645-4.766,10.645-10.644s-4.766-10.644-10.645-10.644H99.852
	c-5.879,0-10.644,4.766-10.644,10.644S93.973,167.651,99.852,167.651z"/>
<path style="fill:#66CBC4;" d="M99.852,167.651H256v-21.289H99.852c-5.879,0-10.644,4.766-10.644,10.644
	S93.973,167.651,99.852,167.651z"/>
<path style="fill:#39B7B6;" d="M99.852,365.639h312.298c5.879,0,10.645-4.766,10.645-10.645s-4.766-10.644-10.645-10.644H99.852
	c-5.879,0-10.644,4.766-10.644,10.644S93.973,365.639,99.852,365.639z"/>
<path style="fill:#66CBC4;" d="M99.852,365.639H256V344.35H99.852c-5.879,0-10.644,4.766-10.644,10.644
	S93.973,365.639,99.852,365.639z"/>
<g>
</g>
<g>
</g>
<g>
</g>
<g>
</g>
<g>
</g>
<g>
</g>
<g>
</g>
<g>
</g>
<g>
</g>
<g>
</g>
<g>
</g>
<g>
</g>
<g>
</g>
<g>
</g>
<g>
</g>
</svg>
