<svg xmlns="http://www.w3.org/2000/svg" xmlns:xlink="http://www.w3.org/1999/xlink" width="500" zoomAndPan="magnify" viewBox="0 0 375 374.999991" height="500" preserveAspectRatio="xMidYMid meet" version="1.0"><defs><g/></defs><rect x="-37.5" width="450" fill="#ffffff" y="-37.499999" height="449.999989" fill-opacity="1"/><rect x="-37.5" width="450" fill="#ffffff" y="-37.499999" height="449.999989" fill-opacity="1"/><rect x="-37.5" width="450" fill="#000000" y="-37.499999" height="449.999989" fill-opacity="1"/><g fill="#ff8d55" fill-opacity="0.4"><g transform="translate(70.486762, 208.40275)"><g><path d="M 41.402344 -50.550781 L 41.402344 -62.101562 L 5.425781 -62.101562 L 5.425781 0 L 41.402344 0 L 41.402344 -11.550781 L 17.058594 -11.550781 L 17.058594 -25.351562 L 31.554688 -25.351562 L 31.554688 -36.90625 L 17.058594 -36.90625 L 17.058594 -50.550781 Z M 41.402344 -50.550781 "/></g></g></g><g fill="#ff8d55" fill-opacity="0.4"><g transform="translate(117.311745, 208.40275)"><g><path d="M 40.007812 0 L 53.882812 0 L 31.863281 -32.5625 L 53.1875 -62.023438 L 39.929688 -62.023438 L 17.058594 -30.546875 L 17.058594 -62.023438 L 5.425781 -62.023438 L 5.425781 0 L 17.058594 0 L 17.058594 -12.25 L 24.730469 -22.871094 Z M 40.007812 0 "/></g></g></g><g fill="#ff8d55" fill-opacity="0.4"><g transform="translate(176.618212, 208.40275)"><g><path d="M 42.253906 -62.023438 L 42.253906 -20.15625 L 18.140625 -62.023438 L 5.425781 -62.023438 L 5.425781 0 L 17.058594 0 L 17.058594 -38.84375 L 39.386719 0 L 53.882812 0 L 53.882812 -62.023438 Z M 42.253906 -62.023438 "/></g></g></g><g fill="#ff8d55" fill-opacity="0.4"><g transform="translate(235.92468, 208.40275)"><g><path d="M 42.023438 0 L 54.117188 0 L 35.898438 -61.871094 L 35.898438 -62.023438 L 23.722656 -62.023438 L 5.425781 0 L 17.597656 0 L 22.171875 -15.429688 L 37.449219 -15.429688 Z M 25.585938 -26.980469 L 29.847656 -41.402344 L 34.035156 -26.980469 Z M 25.585938 -26.980469 "/></g></g></g><g fill="#e2a165" fill-opacity="1"><g transform="translate(75.010756, 206.666149)"><g><path d="M 41.402344 -50.550781 L 41.402344 -62.101562 L 5.425781 -62.101562 L 5.425781 0 L 41.402344 0 L 41.402344 -11.550781 L 17.058594 -11.550781 L 17.058594 -25.351562 L 31.554688 -25.351562 L 31.554688 -36.90625 L 17.058594 -36.90625 L 17.058594 -50.550781 Z M 41.402344 -50.550781 "/></g></g></g><g fill="#e2a165" fill-opacity="1"><g transform="translate(121.835739, 206.666149)"><g><path d="M 40.007812 0 L 53.882812 0 L 31.863281 -32.5625 L 53.1875 -62.023438 L 39.929688 -62.023438 L 17.058594 -30.546875 L 17.058594 -62.023438 L 5.425781 -62.023438 L 5.425781 0 L 17.058594 0 L 17.058594 -12.25 L 24.730469 -22.871094 Z M 40.007812 0 "/></g></g></g><g fill="#e2a165" fill-opacity="1"><g transform="translate(181.142206, 206.666149)"><g><path d="M 42.253906 -62.023438 L 42.253906 -20.15625 L 18.140625 -62.023438 L 5.425781 -62.023438 L 5.425781 0 L 17.058594 0 L 17.058594 -38.84375 L 39.386719 0 L 53.882812 0 L 53.882812 -62.023438 Z M 42.253906 -62.023438 "/></g></g></g><g fill="#e2a165" fill-opacity="1"><g transform="translate(240.448674, 206.666149)"><g><path d="M 42.023438 0 L 54.117188 0 L 35.898438 -61.871094 L 35.898438 -62.023438 L 23.722656 -62.023438 L 5.425781 0 L 17.597656 0 L 22.171875 -15.429688 L 37.449219 -15.429688 Z M 25.585938 -26.980469 L 29.847656 -41.402344 L 34.035156 -26.980469 Z M 25.585938 -26.980469 "/></g></g></g><g fill="#ffffff" fill-opacity="0.4"><g transform="translate(223.54973, 242.11805)"><g><path d="M 7.035156 -4.929688 C 7.75 -5.296875 8.46875 -5.601562 9.160156 -5.882812 C 11.832031 -7.011719 14.589844 -8.183594 14.589844 -11.789062 C 14.589844 -15.242188 12.136719 -17.390625 8.164062 -17.390625 C 4.539062 -17.390625 2.800781 -15.542969 1.976562 -14.003906 C 1.105469 -12.417969 1.085938 -10.875 1.085938 -10.703125 L 4.253906 -10.703125 C 4.253906 -10.703125 4.277344 -11.679688 4.796875 -12.589844 C 5.425781 -13.699219 6.535156 -14.21875 8.164062 -14.21875 C 9.140625 -14.21875 10.007812 -14.023438 10.574219 -13.65625 C 10.941406 -13.417969 11.441406 -12.960938 11.441406 -11.789062 C 11.441406 -10.660156 11.160156 -10.183594 7.925781 -8.792969 C 7.230469 -8.511719 6.425781 -8.164062 5.621094 -7.773438 C 2.757812 -6.359375 1.800781 -4.40625 1.476562 -2.953125 C 1.433594 -2.757812 1.347656 -2.429688 1.347656 -2.191406 L 1.347656 -2.019531 C 1.324219 -1.714844 1.324219 -1.453125 1.324219 -1.28125 L 1.347656 -1.28125 L 1.347656 0 L 14.589844 0 L 14.589844 -3.148438 L 4.929688 -3.148438 C 5.277344 -3.777344 5.90625 -4.386719 7.035156 -4.929688 Z M 7.035156 -4.929688 "/></g></g></g><g fill="#ffffff" fill-opacity="0.4"><g transform="translate(239.223015, 242.11805)"><g><path d="M 11.203125 0 L 15.089844 0 L 8.921875 -9.117188 L 14.894531 -17.367188 L 11.179688 -17.367188 L 4.777344 -8.554688 L 4.777344 -17.367188 L 1.519531 -17.367188 L 1.519531 0 L 4.777344 0 L 4.777344 -3.429688 L 6.925781 -6.40625 Z M 11.203125 0 "/></g></g></g><g fill="#ffffff" fill-opacity="0.4"><g transform="translate(255.829749, 242.11805)"><g><path d="M 7.035156 -4.929688 C 7.75 -5.296875 8.46875 -5.601562 9.160156 -5.882812 C 11.832031 -7.011719 14.589844 -8.183594 14.589844 -11.789062 C 14.589844 -15.242188 12.136719 -17.390625 8.164062 -17.390625 C 4.539062 -17.390625 2.800781 -15.542969 1.976562 -14.003906 C 1.105469 -12.417969 1.085938 -10.875 1.085938 -10.703125 L 4.253906 -10.703125 C 4.253906 -10.703125 4.277344 -11.679688 4.796875 -12.589844 C 5.425781 -13.699219 6.535156 -14.21875 8.164062 -14.21875 C 9.140625 -14.21875 10.007812 -14.023438 10.574219 -13.65625 C 10.941406 -13.417969 11.441406 -12.960938 11.441406 -11.789062 C 11.441406 -10.660156 11.160156 -10.183594 7.925781 -8.792969 C 7.230469 -8.511719 6.425781 -8.164062 5.621094 -7.773438 C 2.757812 -6.359375 1.800781 -4.40625 1.476562 -2.953125 C 1.433594 -2.757812 1.347656 -2.429688 1.347656 -2.191406 L 1.347656 -2.019531 C 1.324219 -1.714844 1.324219 -1.453125 1.324219 -1.28125 L 1.347656 -1.28125 L 1.347656 0 L 14.589844 0 L 14.589844 -3.148438 L 4.929688 -3.148438 C 5.277344 -3.777344 5.90625 -4.386719 7.035156 -4.929688 Z M 7.035156 -4.929688 "/></g></g></g><g fill="#ffffff" fill-opacity="0.4"><g transform="translate(271.503035, 242.11805)"><g><path d="M 7.035156 -4.929688 C 7.75 -5.296875 8.46875 -5.601562 9.160156 -5.882812 C 11.832031 -7.011719 14.589844 -8.183594 14.589844 -11.789062 C 14.589844 -15.242188 12.136719 -17.390625 8.164062 -17.390625 C 4.539062 -17.390625 2.800781 -15.542969 1.976562 -14.003906 C 1.105469 -12.417969 1.085938 -10.875 1.085938 -10.703125 L 4.253906 -10.703125 C 4.253906 -10.703125 4.277344 -11.679688 4.796875 -12.589844 C 5.425781 -13.699219 6.535156 -14.21875 8.164062 -14.21875 C 9.140625 -14.21875 10.007812 -14.023438 10.574219 -13.65625 C 10.941406 -13.417969 11.441406 -12.960938 11.441406 -11.789062 C 11.441406 -10.660156 11.160156 -10.183594 7.925781 -8.792969 C 7.230469 -8.511719 6.425781 -8.164062 5.621094 -7.773438 C 2.757812 -6.359375 1.800781 -4.40625 1.476562 -2.953125 C 1.433594 -2.757812 1.347656 -2.429688 1.347656 -2.191406 L 1.347656 -2.019531 C 1.324219 -1.714844 1.324219 -1.453125 1.324219 -1.28125 L 1.347656 -1.28125 L 1.347656 0 L 14.589844 0 L 14.589844 -3.148438 L 4.929688 -3.148438 C 5.277344 -3.777344 5.90625 -4.386719 7.035156 -4.929688 Z M 7.035156 -4.929688 "/></g></g></g><g fill="#ffffff" fill-opacity="1"><g transform="translate(224.816512, 241.631782)"><g><path d="M 7.035156 -4.929688 C 7.75 -5.296875 8.46875 -5.601562 9.160156 -5.882812 C 11.832031 -7.011719 14.589844 -8.183594 14.589844 -11.789062 C 14.589844 -15.242188 12.136719 -17.390625 8.164062 -17.390625 C 4.539062 -17.390625 2.800781 -15.542969 1.976562 -14.003906 C 1.105469 -12.417969 1.085938 -10.875 1.085938 -10.703125 L 4.253906 -10.703125 C 4.253906 -10.703125 4.277344 -11.679688 4.796875 -12.589844 C 5.425781 -13.699219 6.535156 -14.21875 8.164062 -14.21875 C 9.140625 -14.21875 10.007812 -14.023438 10.574219 -13.65625 C 10.941406 -13.417969 11.441406 -12.960938 11.441406 -11.789062 C 11.441406 -10.660156 11.160156 -10.183594 7.925781 -8.792969 C 7.230469 -8.511719 6.425781 -8.164062 5.621094 -7.773438 C 2.757812 -6.359375 1.800781 -4.40625 1.476562 -2.953125 C 1.433594 -2.757812 1.347656 -2.429688 1.347656 -2.191406 L 1.347656 -2.019531 C 1.324219 -1.714844 1.324219 -1.453125 1.324219 -1.28125 L 1.347656 -1.28125 L 1.347656 0 L 14.589844 0 L 14.589844 -3.148438 L 4.929688 -3.148438 C 5.277344 -3.777344 5.90625 -4.386719 7.035156 -4.929688 Z M 7.035156 -4.929688 "/></g></g></g><g fill="#ffffff" fill-opacity="1"><g transform="translate(240.489797, 241.631782)"><g><path d="M 11.203125 0 L 15.089844 0 L 8.921875 -9.117188 L 14.894531 -17.367188 L 11.179688 -17.367188 L 4.777344 -8.554688 L 4.777344 -17.367188 L 1.519531 -17.367188 L 1.519531 0 L 4.777344 0 L 4.777344 -3.429688 L 6.925781 -6.40625 Z M 11.203125 0 "/></g></g></g><g fill="#ffffff" fill-opacity="1"><g transform="translate(257.096532, 241.631782)"><g><path d="M 7.035156 -4.929688 C 7.75 -5.296875 8.46875 -5.601562 9.160156 -5.882812 C 11.832031 -7.011719 14.589844 -8.183594 14.589844 -11.789062 C 14.589844 -15.242188 12.136719 -17.390625 8.164062 -17.390625 C 4.539062 -17.390625 2.800781 -15.542969 1.976562 -14.003906 C 1.105469 -12.417969 1.085938 -10.875 1.085938 -10.703125 L 4.253906 -10.703125 C 4.253906 -10.703125 4.277344 -11.679688 4.796875 -12.589844 C 5.425781 -13.699219 6.535156 -14.21875 8.164062 -14.21875 C 9.140625 -14.21875 10.007812 -14.023438 10.574219 -13.65625 C 10.941406 -13.417969 11.441406 -12.960938 11.441406 -11.789062 C 11.441406 -10.660156 11.160156 -10.183594 7.925781 -8.792969 C 7.230469 -8.511719 6.425781 -8.164062 5.621094 -7.773438 C 2.757812 -6.359375 1.800781 -4.40625 1.476562 -2.953125 C 1.433594 -2.757812 1.347656 -2.429688 1.347656 -2.191406 L 1.347656 -2.019531 C 1.324219 -1.714844 1.324219 -1.453125 1.324219 -1.28125 L 1.347656 -1.28125 L 1.347656 0 L 14.589844 0 L 14.589844 -3.148438 L 4.929688 -3.148438 C 5.277344 -3.777344 5.90625 -4.386719 7.035156 -4.929688 Z M 7.035156 -4.929688 "/></g></g></g><g fill="#ffffff" fill-opacity="1"><g transform="translate(272.769817, 241.631782)"><g><path d="M 7.035156 -4.929688 C 7.75 -5.296875 8.46875 -5.601562 9.160156 -5.882812 C 11.832031 -7.011719 14.589844 -8.183594 14.589844 -11.789062 C 14.589844 -15.242188 12.136719 -17.390625 8.164062 -17.390625 C 4.539062 -17.390625 2.800781 -15.542969 1.976562 -14.003906 C 1.105469 -12.417969 1.085938 -10.875 1.085938 -10.703125 L 4.253906 -10.703125 C 4.253906 -10.703125 4.277344 -11.679688 4.796875 -12.589844 C 5.425781 -13.699219 6.535156 -14.21875 8.164062 -14.21875 C 9.140625 -14.21875 10.007812 -14.023438 10.574219 -13.65625 C 10.941406 -13.417969 11.441406 -12.960938 11.441406 -11.789062 C 11.441406 -10.660156 11.160156 -10.183594 7.925781 -8.792969 C 7.230469 -8.511719 6.425781 -8.164062 5.621094 -7.773438 C 2.757812 -6.359375 1.800781 -4.40625 1.476562 -2.953125 C 1.433594 -2.757812 1.347656 -2.429688 1.347656 -2.191406 L 1.347656 -2.019531 C 1.324219 -1.714844 1.324219 -1.453125 1.324219 -1.28125 L 1.347656 -1.28125 L 1.347656 0 L 14.589844 0 L 14.589844 -3.148438 L 4.929688 -3.148438 C 5.277344 -3.777344 5.90625 -4.386719 7.035156 -4.929688 Z M 7.035156 -4.929688 "/></g></g></g></svg>