<?xml version="1.0" encoding="iso-8859-1"?>
<!-- Generator: Adobe Illustrator 16.0.0, SVG Export Plug-In . SVG Version: 6.00 Build 0)  -->
<!DOCTYPE svg PUBLIC "-//W3C//DTD SVG 1.1//EN" "http://www.w3.org/Graphics/SVG/1.1/DTD/svg11.dtd">
<svg version="1.1" id="Capa_1" xmlns="http://www.w3.org/2000/svg" xmlns:xlink="http://www.w3.org/1999/xlink" x="0px" y="0px"
	 width="32.729px" height="32.729px" viewBox="0 0 32.729 32.729" style="enable-background:new 0 0 32.729 32.729;"
	 xml:space="preserve">
<g>
	<path d="M26.227,28.17c-0.264-0.205-0.246-1.092-0.35-1.539c-0.104-0.451-0.226-1.014-0.226-1.014s0.581,0.303,0.481-0.056
		c-0.102-0.356-0.291-0.742-0.291-0.742s1.287-0.788,1.086-1.104c-0.203-0.315-0.768-1.724-0.768-1.724s0.447-0.651,0.299-0.926
		c-0.146-0.271-0.336-0.683-0.336-0.683s0.391-0.009,0.229-0.271c-0.159-0.261-0.295-0.676-0.32-1.12
		c-0.025-0.443,0.361-1.953,0.32-4.49c-0.039-2.537-1.11-5.621-0.963-6.17c0.146-0.55,0.781-2.336,0.371-2.817
		s-0.479-0.599-0.916-0.717c-0.436-0.118-0.894-0.182-1.121-0.229c-0.229-0.046-0.19-0.383-0.19-0.383s0.241-0.798,0.308-1.021
		c0.068-0.223-0.111-1.17-0.205-1.424c-0.095-0.255-0.375-0.684-0.869-0.804c-0.493-0.121-1.113-0.08-1.56,0.321
		C20.762,1.66,21.092,2.89,21.092,2.89s-0.311,0.003-0.211,0.243c0.101,0.24,0.342,0.617,0.406,0.721
		c0.064,0.104,0.246-0.001,0.246-0.001s0.199,0.605,0.171,0.938c-0.026,0.335-0.159,0.538-0.444,0.646
		c-0.287,0.108-2.354,0.175-2.664,0.094c-0.308-0.08-0.045-3.346-0.045-3.346l-0.435-0.797l0.237-0.828l-0.407,0.452L17.489,0
		l0.038,0.683l-0.781-0.576l0.591,1.021l-0.217,0.39l-0.736,0.063l1.326,0.932c0,0-0.785,3.288-0.394,3.682
		c0.392,0.395,1.657,0.597,2.131,1.063c0.472,0.467,0.082,3.354,0.082,3.354s-1.104-0.217-1.072-0.041s1.054,0.36,1.095,0.588
		c0.039,0.228-1.254,0.685-1.121,0.819c0.131,0.135,1.19-0.096,1.19-0.096s0.306,0.267,0.491,0.429
		c0.188,0.162,0.365,0.062,0.365,0.062l-0.202,1.751l-2.005,0.354c0,0-0.743-3.294-1.401-3.796
		c-0.659-0.503-1.425-0.627-1.425-0.627l0.168-1.536c0,0,0.353-0.268,0.276-0.374c-0.074-0.107-0.625-0.644-0.625-0.644
		s0.429-0.496,0.455-0.884c0.027-0.39-0.83-0.241-0.83-0.241s-1.018-1.166-1.661-1.152c-0.644,0.013-1.745,1.16-1.956,1.366
		c-0.209,0.207,0.188,1.019,0.188,1.019s-0.308,0.133-0.188,0.402c0.121,0.267,0.54,0.319,0.54,0.319v0.002
		c0,0,0.424,0.602,0.29,0.938c-0.388,0.977-2.7,1.712-3.106,1.929c-0.407,0.218-3.215,2.598-3.215,3.134
		c0,0.535,1.045,1.152,1.045,1.152s-0.201,2.666,1.044,4.098c1.247,1.434,2.652,0.35,2.652,0.35s0.161,7.621,0.333,7.701
		c0.172,0.08,6.178,0.321,6.355,0.207c0.179-0.115,0.398-1.465,0.626-3.435c0.241,0.629,1.268,3.056,1.413,3.408
		c0.147,0.354-0.247,1.28-0.17,1.469c0.078,0.188,0.351,0.347,0.392,0.679s-0.08,1.155,0.142,1.368
		c0.222,0.214,1.205,0.259,1.205,0.259s0.396,0.602,1.332,0.988c0.938,0.389,1.85-0.066,1.796-0.32
		c-0.055-0.256-0.857-1.031-1.385-1.42c-0.523-0.391-0.17-1.957-0.396-2.609c-0.226-0.653-1.021-1.355-0.899-2.105
		c0,0,0.16-0.056,0.309-0.107c0.146-0.051,0.255-0.209,0.255-0.209s0.12,0.799,0.406,0.877c0.284,0.078,1.481,0.029,1.481,0.029
		s-0.014,0.535-0.207,0.801c-0.192,0.268,0.209,0.481,0.209,0.481s0.549-0.569,0.627-0.332c0.078,0.238,0.147,1.112,0.633,1.347
		c0.486,0.233,1.377,0.182,1.671,0.064s0.336-0.179,0.253-0.381C26.817,28.488,26.492,28.374,26.227,28.17z M21.381,23.438
		c-0.139,0.271-0.562,0.838-0.633,1.238c-0.109-1.205-0.861-2.479-0.861-2.479s0.74,0.542,1.021,0.521
		c0.281-0.02,0.423-0.25,0.423-0.25s0.423,0.182,0.442,0.353C21.793,22.989,21.52,23.164,21.381,23.438z M22.444,20.977
		c-1.342-1.34-3.283-1.395-3.993-1.607s-1.419-2.143-1.419-2.143s1.025,0.185,1.15,0.08c0.127-0.104,0.467-0.326,0.43-0.67
		s-0.105-0.991-0.105-0.991l1.768-0.268c0.361,1.099,1.715,2.276,2.01,2.759c0.294,0.482,0.348,1.459,0.428,1.715
		C22.792,20.106,22.723,20.362,22.444,20.977z"/>
</g>
<g>
</g>
<g>
</g>
<g>
</g>
<g>
</g>
<g>
</g>
<g>
</g>
<g>
</g>
<g>
</g>
<g>
</g>
<g>
</g>
<g>
</g>
<g>
</g>
<g>
</g>
<g>
</g>
<g>
</g>
</svg>
